<svg width="960pt" height="2131pt" viewBox="0.00 0.00 960.00 2131.00" xmlns="http://www.w3.org/2000/svg" xmlns:xlink="http://www.w3.org/1999/xlink">
<g id="graph0" class="graph" transform="scale(1 1) rotate(0) translate(4 2126.92)">
<title>LexerDFA_Aesthetic_Max</title>
<polygon fill="white" stroke="none" points="-4,4 -4,-2126.92 955.98,-2126.92 955.98,4 -4,4"/>
<!-- start -->
<g id="node1" class="node">
<title>start</title>
<ellipse fill="#333333" stroke="#333333" stroke-width="1.5" cx="0.36" cy="-999.8" rx="0.36" ry="0.36"/>
</g>
<!-- s0 -->
<g id="node2" class="node">
<title>s0</title>
<ellipse fill="#f0f8ff" stroke="#333333" stroke-width="1.5" cx="123.53" cy="-999.8" rx="35.81" ry="28.85"/>
<text xml:space="preserve" text-anchor="middle" x="123.53" y="-1003.1" font-family="Verdana" font-size="11.00">0</text>
<text xml:space="preserve" text-anchor="middle" x="123.53" y="-989.9" font-family="Verdana" font-size="11.00">START</text>
</g>
<!-- start&#45;&gt;s0 -->
<g id="edge1" class="edge">
<title>start-&gt;s0</title>
<path fill="none" stroke="#007acc" stroke-width="2.5" d="M1.07,-999.8C5.01,-999.8 41.51,-999.8 73.48,-999.8"/>
<polygon fill="#007acc" stroke="#007acc" stroke-width="2.5" points="73.47,-1003.3 83.47,-999.8 73.47,-996.3 73.47,-1003.3"/>
</g>
<!-- s0&#45;&gt;s0 -->
<g id="edge2" class="edge">
<title>s0-&gt;s0</title>
<path fill="none" stroke="#333333" stroke-dasharray="1,5" d="M111.82,-1027.82C105.14,-1055.76 109.05,-1086.65 123.53,-1086.65 136.09,-1086.65 140.69,-1063.42 137.34,-1039.03"/>
<polygon fill="#333333" stroke="#333333" points="140.8,-1038.49 135.52,-1029.31 133.92,-1039.78 140.8,-1038.49"/>
<text xml:space="preserve" text-anchor="middle" x="123.53" y="-1089.35" font-family="Verdana" font-size="9.00">whitespace</text>
</g>
<!-- s1 -->
<g id="node3" class="node">
<title>s1</title>
<ellipse fill="#d4e6f1" stroke="#333333" stroke-width="1.5" cx="485.49" cy="-2029.8" rx="37.19" ry="24.32"/>
<text xml:space="preserve" text-anchor="middle" x="485.49" y="-2033.1" font-family="Verdana" font-size="11.00">1</text>
<text xml:space="preserve" text-anchor="middle" x="485.49" y="-2019.9" font-family="Verdana" font-size="11.00">ID/KW</text>
</g>
<!-- s0&#45;&gt;s1 -->
<g id="edge3" class="edge">
<title>s0-&gt;s1</title>
<path fill="none" stroke="#333333" d="M127.16,-1028.94C140.76,-1179.34 202.34,-1860.8 202.34,-1860.8 202.34,-1860.8 428.85,-2001.8 428.85,-2001.8 428.85,-2001.8 435.92,-2005.36 445.03,-2009.94"/>
<polygon fill="#333333" stroke="#333333" points="443.18,-2012.93 453.69,-2014.3 446.33,-2006.68 443.18,-2012.93"/>
<text xml:space="preserve" text-anchor="middle" x="227.77" y="-1893.96" font-family="Verdana" font-size="9.00">[A-Z a-z _]</text>
</g>
<!-- s2 -->
<g id="node4" class="node">
<title>s2</title>
<ellipse fill="#d4e6f1" stroke="#333333" stroke-width="1.5" cx="485.49" cy="-1754.8" rx="42.42" ry="24.32"/>
<text xml:space="preserve" text-anchor="middle" x="485.49" y="-1758.1" font-family="Verdana" font-size="11.00">2</text>
<text xml:space="preserve" text-anchor="middle" x="485.49" y="-1744.9" font-family="Verdana" font-size="11.00">Number</text>
</g>
<!-- s0&#45;&gt;s2 -->
<g id="edge4" class="edge">
<title>s0-&gt;s2</title>
<path fill="none" stroke="#333333" d="M127.25,-1029.06C141.03,-1177.03 202.34,-1835.8 202.34,-1835.8 202.34,-1835.8 296.19,-1836.8 296.19,-1836.8 296.19,-1836.8 385.85,-1836.8 385.85,-1836.8 385.85,-1836.8 422.84,-1806.04 451.52,-1782.2"/>
<polygon fill="#333333" stroke="#333333" points="453.49,-1785.12 458.94,-1776.04 449.01,-1779.74 453.49,-1785.12"/>
<text xml:space="preserve" text-anchor="middle" x="227.77" y="-1839.02" font-family="Verdana" font-size="9.00">[0-9]</text>
</g>
<!-- s3 -->
<g id="node6" class="node">
<title>s3</title>
<ellipse fill="#fff3e0" stroke="#333333" stroke-width="1.5" cx="341.02" cy="-1163.8" rx="27" ry="24.32"/>
<text xml:space="preserve" text-anchor="middle" x="341.02" y="-1167.1" font-family="Verdana" font-size="11.00">3</text>
<text xml:space="preserve" text-anchor="middle" x="341.02" y="-1153.9" font-family="Verdana" font-size="11.00">&lt;</text>
</g>
<!-- s0&#45;&gt;s3 -->
<g id="edge6" class="edge">
<title>s0-&gt;s3</title>
<path fill="none" stroke="#333333" d="M150.52,-1019.58C190.8,-1050.23 268.04,-1109.02 310.41,-1141.27"/>
<polygon fill="#333333" stroke="#333333" points="308.11,-1143.92 318.19,-1147.19 312.35,-1138.35 308.11,-1143.92"/>
<text xml:space="preserve" text-anchor="middle" x="227.77" y="-1099.19" font-family="Verdana" font-size="9.00">&lt;</text>
</g>
<!-- s4 -->
<g id="node7" class="node">
<title>s4</title>
<ellipse fill="#fff3e0" stroke="#333333" stroke-width="1.5" cx="341.02" cy="-999.8" rx="27" ry="24.32"/>
<text xml:space="preserve" text-anchor="middle" x="341.02" y="-1003.1" font-family="Verdana" font-size="11.00">4</text>
<text xml:space="preserve" text-anchor="middle" x="341.02" y="-989.9" font-family="Verdana" font-size="11.00">&gt;</text>
</g>
<!-- s0&#45;&gt;s4 -->
<g id="edge7" class="edge">
<title>s0-&gt;s4</title>
<path fill="none" stroke="#333333" d="M159.63,-999.8C198.73,-999.8 261.73,-999.8 301.98,-999.8"/>
<polygon fill="#333333" stroke="#333333" points="301.92,-1003.3 311.92,-999.8 301.92,-996.3 301.92,-1003.3"/>
<text xml:space="preserve" text-anchor="middle" x="227.77" y="-1002.5" font-family="Verdana" font-size="9.00">&gt;</text>
</g>
<!-- s5 -->
<g id="node8" class="node">
<title>s5</title>
<ellipse fill="#fff3e0" stroke="#333333" stroke-width="1.5" cx="341.02" cy="-823.8" rx="27" ry="24.32"/>
<text xml:space="preserve" text-anchor="middle" x="341.02" y="-827.1" font-family="Verdana" font-size="11.00">5</text>
<text xml:space="preserve" text-anchor="middle" x="341.02" y="-813.9" font-family="Verdana" font-size="11.00">=</text>
</g>
<!-- s0&#45;&gt;s5 -->
<g id="edge8" class="edge">
<title>s0-&gt;s5</title>
<path fill="none" stroke="#333333" d="M149.67,-979.27C190.01,-946.32 268.96,-881.84 311.4,-847.18"/>
<polygon fill="#333333" stroke="#333333" points="313.42,-850.04 318.95,-841.01 308.99,-844.62 313.42,-850.04"/>
<text xml:space="preserve" text-anchor="middle" x="227.77" y="-935.44" font-family="Verdana" font-size="9.00">=</text>
</g>
<!-- s6 -->
<g id="node9" class="node">
<title>s6</title>
<ellipse fill="#fff3e0" stroke="#333333" stroke-width="1.5" cx="341.02" cy="-659.8" rx="27" ry="24.32"/>
<text xml:space="preserve" text-anchor="middle" x="341.02" y="-663.1" font-family="Verdana" font-size="11.00">6</text>
<text xml:space="preserve" text-anchor="middle" x="341.02" y="-649.9" font-family="Verdana" font-size="11.00">+</text>
</g>
<!-- s0&#45;&gt;s6 -->
<g id="edge9" class="edge">
<title>s0-&gt;s6</title>
<path fill="none" stroke="#333333" d="M140.28,-973.74C163.01,-936.1 202.34,-871 202.34,-871 202.34,-871 282.01,-748.79 320.14,-690.3"/>
<polygon fill="#333333" stroke="#333333" points="322.96,-692.38 325.49,-682.09 317.1,-688.56 322.96,-692.38"/>
<text xml:space="preserve" text-anchor="middle" x="227.77" y="-873.7" font-family="Verdana" font-size="9.00">+</text>
</g>
<!-- s7 -->
<g id="node10" class="node">
<title>s7</title>
<ellipse fill="#fff3e0" stroke="#333333" stroke-width="1.5" cx="341.02" cy="-495.8" rx="27" ry="24.32"/>
<text xml:space="preserve" text-anchor="middle" x="341.02" y="-499.1" font-family="Verdana" font-size="11.00">7</text>
<text xml:space="preserve" text-anchor="middle" x="341.02" y="-485.9" font-family="Verdana" font-size="11.00">-</text>
</g>
<!-- s0&#45;&gt;s7 -->
<g id="edge10" class="edge">
<title>s0-&gt;s7</title>
<path fill="none" stroke="#333333" d="M134.07,-971.87C154.85,-911.04 202.34,-772 202.34,-772 202.34,-772 287.71,-600.74 324,-527.93"/>
<polygon fill="#333333" stroke="#333333" points="326.98,-529.8 328.31,-519.29 320.72,-526.68 326.98,-529.8"/>
<text xml:space="preserve" text-anchor="middle" x="227.77" y="-774.7" font-family="Verdana" font-size="9.00">-</text>
</g>
<!-- s9 -->
<g id="node11" class="node">
<title>s9</title>
<ellipse fill="#fff3e0" stroke="#333333" stroke-width="1.5" cx="341.02" cy="-331.8" rx="27" ry="24.32"/>
<text xml:space="preserve" text-anchor="middle" x="341.02" y="-335.1" font-family="Verdana" font-size="11.00">9</text>
<text xml:space="preserve" text-anchor="middle" x="341.02" y="-321.9" font-family="Verdana" font-size="11.00">/</text>
</g>
<!-- s0&#45;&gt;s9 -->
<g id="edge5" class="edge">
<title>s0-&gt;s9</title>
<path fill="none" stroke="#333333" d="M130.96,-970.88C149.61,-887.07 202.34,-650 202.34,-650 202.34,-650 290.28,-446.76 325.6,-365.14"/>
<polygon fill="#333333" stroke="#333333" points="328.76,-366.64 329.52,-356.07 322.33,-363.86 328.76,-366.64"/>
<text xml:space="preserve" text-anchor="middle" x="227.77" y="-652.7" font-family="Verdana" font-size="9.00">/</text>
</g>
<!-- TOP -->
<g id="node15" class="node">
<title>TOP</title>
<path fill="#f8c9a3" stroke="#1f497d" stroke-width="2" d="M932.48,-832.6C932.48,-832.6 785.33,-832.6 785.33,-832.6 781.73,-832.6 778.13,-829 778.13,-825.4 778.13,-825.4 778.13,-818.2 778.13,-818.2 778.13,-814.6 781.73,-811 785.33,-811 785.33,-811 932.48,-811 932.48,-811 936.08,-811 939.68,-814.6 939.68,-818.2 939.68,-818.2 939.68,-825.4 939.68,-825.4 939.68,-829 936.08,-832.6 932.48,-832.6"/>
<text xml:space="preserve" text-anchor="middle" x="858.9" y="-818.5" font-family="Verdana" font-size="11.00" fill="#1f497d">Operator | Assignment Op</text>
</g>
<!-- s0&#45;&gt;TOP -->
<g id="edge11" class="edge">
<title>s0-&gt;TOP:n</title>
<path fill="none" stroke="#0056b3" d="M129.64,-1028.93C146.95,-1127.71 202.34,-1443.8 202.34,-1443.8 202.34,-1443.8 296.19,-1455.8 296.19,-1455.8 296.19,-1455.8 385.85,-1455.8 385.85,-1455.8 385.85,-1455.8 722.83,-1380.8 722.83,-1380.8 722.83,-1380.8 837.01,-921.65 856.19,-844.53"/>
<polygon fill="#0056b3" stroke="#0056b3" points="859.52,-845.62 858.54,-835.07 852.73,-843.93 859.52,-845.62"/>
<text xml:space="preserve" text-anchor="middle" x="341.02" y="-1458.5" font-family="Verdana" font-size="9.00">* | %</text>
</g>
<!-- TSYM -->
<g id="node16" class="node">
<title>TSYM</title>
<path fill="#b4d4f8" stroke="#1f497d" stroke-width="2" d="M880.34,-198.6C880.34,-198.6 837.47,-198.6 837.47,-198.6 833.87,-198.6 830.27,-195 830.27,-191.4 830.27,-191.4 830.27,-184.2 830.27,-184.2 830.27,-180.6 833.87,-177 837.47,-177 837.47,-177 880.34,-177 880.34,-177 883.94,-177 887.54,-180.6 887.54,-184.2 887.54,-184.2 887.54,-191.4 887.54,-191.4 887.54,-195 883.94,-198.6 880.34,-198.6"/>
<text xml:space="preserve" text-anchor="middle" x="858.9" y="-184.5" font-family="Verdana" font-size="11.00" fill="#1f497d">Symbol</text>
</g>
<!-- s0&#45;&gt;TSYM -->
<g id="edge12" class="edge">
<title>s0-&gt;TSYM:n</title>
<path fill="none" stroke="#5e35b1" d="M128.13,-970.77C143.43,-847.26 202.34,-371.8 202.34,-371.8 202.34,-371.8 296.19,-243 296.19,-243 296.19,-243 768.36,-206.58 847.66,-200.47"/>
<polygon fill="#5e35b1" stroke="#5e35b1" points="847.69,-203.98 857.4,-199.72 847.16,-197 847.69,-203.98"/>
<text xml:space="preserve" text-anchor="middle" x="341.02" y="-245.7" font-family="Verdana" font-size="9.00">; { ( ) , .</text>
</g>
<!-- s1&#45;&gt;s1 -->
<g id="edge13" class="edge">
<title>s1-&gt;s1</title>
<path fill="none" stroke="#4caf50" d="M466.73,-2051.3C451.16,-2078.96 457.41,-2112.12 485.49,-2112.12 510.16,-2112.12 517.98,-2086.51 508.94,-2061.52"/>
<polygon fill="#4caf50" stroke="#4caf50" points="512.23,-2060.3 504.87,-2052.68 505.87,-2063.23 512.23,-2060.3"/>
<text xml:space="preserve" text-anchor="middle" x="485.49" y="-2114.82" font-family="Verdana" font-size="9.00">[A-Z a-z 0-9 _]</text>
</g>
<!-- s1&#45;&gt;s2 -->
<!-- TLIT -->
<g id="node14" class="node">
<title>TLIT</title>
<path fill="#c6e0b4" stroke="#1f497d" stroke-width="2" d="M944.78,-1885.6C944.78,-1885.6 773.03,-1885.6 773.03,-1885.6 769.43,-1885.6 765.83,-1882 765.83,-1878.4 765.83,-1878.4 765.83,-1871.2 765.83,-1871.2 765.83,-1867.6 769.43,-1864 773.03,-1864 773.03,-1864 944.78,-1864 944.78,-1864 948.38,-1864 951.98,-1867.6 951.98,-1871.2 951.98,-1871.2 951.98,-1878.4 951.98,-1878.4 951.98,-1882 948.38,-1885.6 944.78,-1885.6"/>
<text xml:space="preserve" text-anchor="middle" x="858.9" y="-1871.5" font-family="Verdana" font-size="11.00" fill="#1f497d">ID | Keyword | Number | Float</text>
</g>
<!-- s1&#45;&gt;TLIT -->
<g id="edge14" class="edge">
<title>s1-&gt;TLIT:n</title>
<path fill="none" stroke="#4caf50" d="M519.85,-2019.35C585,-1998.96 722.83,-1955.8 722.83,-1955.8 722.83,-1955.8 817.03,-1907.89 848.68,-1891.8"/>
<polygon fill="#4caf50" stroke="#4caf50" points="850.23,-1894.94 857.56,-1887.29 847.06,-1888.7 850.23,-1894.94"/>
<text xml:space="preserve" text-anchor="middle" x="653.98" y="-1999.93" font-family="Verdana" font-size="9.00">other</text>
</g>
<!-- s2&#45;&gt;s2 -->
<g id="edge15" class="edge">
<title>s2-&gt;s2</title>
<path fill="none" stroke="#008cba" d="M466.27,-1777.14C451.29,-1804.62 457.69,-1837.12 485.49,-1837.12 509.81,-1837.12 517.75,-1812.24 509.32,-1787.61"/>
<polygon fill="#008cba" stroke="#008cba" points="512.55,-1786.26 505.31,-1778.52 506.14,-1789.09 512.55,-1786.26"/>
<text xml:space="preserve" text-anchor="middle" x="485.49" y="-1839.82" font-family="Verdana" font-size="9.00">[0-9]</text>
</g>
<!-- s8 -->
<g id="node5" class="node">
<title>s8</title>
<ellipse fill="#d4e6f1" stroke="#333333" stroke-width="1.5" cx="485.49" cy="-1947.8" rx="30.38" ry="24.32"/>
<text xml:space="preserve" text-anchor="middle" x="485.49" y="-1951.1" font-family="Verdana" font-size="11.00">8</text>
<text xml:space="preserve" text-anchor="middle" x="485.49" y="-1937.9" font-family="Verdana" font-size="11.00">Float</text>
</g>
<!-- s2&#45;&gt;s8 -->
<g id="edge16" class="edge">
<title>s2-&gt;s8</title>
<path fill="none" stroke="#333333" d="M485.49,-1779.64C485.49,-1813.06 485.49,-1872.75 485.49,-1911.28"/>
<polygon fill="#333333" stroke="#333333" points="481.99,-1911.24 485.49,-1921.24 488.99,-1911.24 481.99,-1911.24"/>
<text xml:space="preserve" text-anchor="middle" x="477.09" y="-1848.6" font-family="Verdana" font-size="9.00">.</text>
</g>
<!-- s2&#45;&gt;s8 -->
<!-- s10 -->
<g id="node13" class="node">
<title>s10</title>
<ellipse fill="#ffdede" stroke="#333333" stroke-width="1.5" cx="485.49" cy="-109.8" rx="56.64" ry="24.32"/>
<text xml:space="preserve" text-anchor="middle" x="485.49" y="-113.1" font-family="Verdana" font-size="11.00">10</text>
<text xml:space="preserve" text-anchor="middle" x="485.49" y="-99.9" font-family="Verdana" font-size="11.00">INVALID ID</text>
</g>
<!-- s2&#45;&gt;s10 -->
<g id="edge17" class="edge">
<title>s2-&gt;s10</title>
<path fill="none" stroke="#ff0000" d="M476.51,-1730.56C460.54,-1687.41 428.85,-1601.8 428.85,-1601.8 428.85,-1601.8 339.67,-917.2 339.67,-917.2 339.67,-917.2 339.67,-906.4 339.67,-906.4 339.67,-906.4 428.85,-385.8 428.85,-385.8 428.85,-385.8 462.86,-220.05 478.17,-145.44"/>
<polygon fill="#ff0000" stroke="#ff0000" points="481.57,-146.28 480.16,-135.78 474.72,-144.87 481.57,-146.28"/>
<text xml:space="preserve" text-anchor="middle" x="341.02" y="-909.1" font-family="Verdana" font-size="9.00">[A-Z a-z _]</text>
</g>
<!-- s2&#45;&gt;TLIT -->
<g id="edge18" class="edge">
<title>s2-&gt;TLIT:n</title>
<path fill="none" stroke="#008cba" d="M519.35,-1770.19C593.19,-1804.76 765.83,-1885.6 765.83,-1885.6 765.83,-1885.6 822.64,-1886.21 847.49,-1886.48"/>
<polygon fill="#008cba" stroke="#008cba" points="847.35,-1889.98 857.39,-1886.58 847.43,-1882.98 847.35,-1889.98"/>
<text xml:space="preserve" text-anchor="middle" x="653.98" y="-1866.37" font-family="Verdana" font-size="9.00">other</text>
</g>
<!-- s8&#45;&gt;s8 -->
<g id="edge19" class="edge">
<title>s8-&gt;s8</title>
<path fill="none" stroke="#008cba" d="M467.45,-1968.06C450.98,-1995.95 456.99,-2030.12 485.49,-2030.12 510.53,-2030.12 518.21,-2003.73 508.52,-1978.39"/>
<polygon fill="#008cba" stroke="#008cba" points="511.68,-1976.9 504.18,-1969.42 505.38,-1979.95 511.68,-1976.9"/>
<text xml:space="preserve" text-anchor="middle" x="485.49" y="-2032.82" font-family="Verdana" font-size="9.00">[0-9]</text>
</g>
<!-- s8&#45;&gt;s10 -->
<!-- s8&#45;&gt;TLIT -->
<g id="edge20" class="edge">
<title>s8-&gt;TLIT:n</title>
<path fill="none" stroke="#008cba" d="M516.02,-1942.95C593.09,-1930.28 797.81,-1896.64 847.78,-1888.43"/>
<polygon fill="#008cba" stroke="#008cba" points="848.11,-1891.92 857.41,-1886.85 846.98,-1885.01 848.11,-1891.92"/>
<text xml:space="preserve" text-anchor="middle" x="653.98" y="-1934.09" font-family="Verdana" font-size="9.00">other</text>
</g>
<!-- s3&#45;&gt;s4 -->
<!-- s3&#45;&gt;TOP -->
<g id="edge23" class="edge">
<title>s3:s-&gt;TOP:n</title>
<path fill="none" stroke="#e65100" d="M341.02,-1137.75C341.02,-1137.75 542.12,-1026.8 542.12,-1026.8 542.12,-1026.8 722.83,-917.8 722.83,-917.8 722.83,-917.8 817.92,-858.96 849.12,-839.66"/>
<polygon fill="#e65100" stroke="#e65100" points="850.96,-842.63 857.62,-834.4 847.27,-836.68 850.96,-842.63"/>
<text xml:space="preserve" text-anchor="middle" x="485.49" y="-1112.11" font-family="Verdana" font-size="9.00">= → &lt;=</text>
<text xml:space="preserve" text-anchor="middle" x="485.49" y="-1101.31" font-family="Verdana" font-size="9.00">&gt; → &lt;&gt;</text>
<text xml:space="preserve" text-anchor="middle" x="485.49" y="-1090.51" font-family="Verdana" font-size="9.00">other → &lt;</text>
</g>
<!-- s4&#45;&gt;s5 -->
<!-- s4&#45;&gt;TOP -->
<g id="edge24" class="edge">
<title>s4:s-&gt;TOP:n</title>
<path fill="none" stroke="#e65100" d="M341.02,-973.75C341.02,-973.75 428.85,-918.2 428.85,-918.2 428.85,-918.2 780.53,-849.02 847.84,-835.78"/>
<polygon fill="#e65100" stroke="#e65100" points="848.28,-839.26 857.42,-833.89 846.93,-832.39 848.28,-839.26"/>
<text xml:space="preserve" text-anchor="middle" x="485.49" y="-931.7" font-family="Verdana" font-size="9.00">= → &gt;=</text>
<text xml:space="preserve" text-anchor="middle" x="485.49" y="-920.9" font-family="Verdana" font-size="9.00">other → &gt;</text>
</g>
<!-- s5&#45;&gt;s6 -->
<!-- s5&#45;&gt;TOP -->
<g id="edge25" class="edge">
<title>s5:s-&gt;TOP:s</title>
<path fill="none" stroke="#e65100" d="M341.02,-797.75C341.02,-797.75 771.87,-807.94 847.61,-809.73"/>
<polygon fill="#e65100" stroke="#e65100" points="847.31,-813.23 857.39,-809.96 847.48,-806.23 847.31,-813.23"/>
<text xml:space="preserve" text-anchor="middle" x="485.49" y="-815.96" font-family="Verdana" font-size="9.00">= → ==</text>
<text xml:space="preserve" text-anchor="middle" x="485.49" y="-805.16" font-family="Verdana" font-size="9.00">other → =</text>
</g>
<!-- s6&#45;&gt;s7 -->
<!-- s6&#45;&gt;TOP -->
<g id="edge26" class="edge">
<title>s6:s-&gt;TOP:s</title>
<path fill="none" stroke="#e65100" d="M341.02,-633.75C341.02,-633.75 428.85,-600.2 428.85,-600.2 428.85,-600.2 542.12,-600.2 542.12,-600.2 542.12,-600.2 796.72,-768.81 849.42,-803.72"/>
<polygon fill="#e65100" stroke="#e65100" points="847.37,-806.56 857.64,-809.16 851.24,-800.72 847.37,-806.56"/>
<text xml:space="preserve" text-anchor="middle" x="485.49" y="-613.7" font-family="Verdana" font-size="9.00">+ → ++</text>
<text xml:space="preserve" text-anchor="middle" x="485.49" y="-602.9" font-family="Verdana" font-size="9.00">other → +</text>
</g>
<!-- s7&#45;&gt;s9 -->
<!-- s7&#45;&gt;TOP -->
<g id="edge27" class="edge">
<title>s7:s-&gt;TOP:s</title>
<path fill="none" stroke="#e65100" d="M341.02,-469.75C341.02,-469.75 368.02,-470.75 368.02,-470.75 368.02,-470.75 722.83,-614.8 722.83,-614.8 722.83,-614.8 825.16,-761.59 852.34,-800.59"/>
<polygon fill="#e65100" stroke="#e65100" points="849.45,-802.56 858.04,-808.76 855.19,-798.55 849.45,-802.56"/>
<text xml:space="preserve" text-anchor="middle" x="485.49" y="-553.88" font-family="Verdana" font-size="9.00">- → --</text>
<text xml:space="preserve" text-anchor="middle" x="485.49" y="-543.08" font-family="Verdana" font-size="9.00">other → -</text>
</g>
<!-- s11 -->
<g id="node12" class="node">
<title>s11</title>
<ellipse fill="#eaeaea" stroke="#333333" stroke-width="1.5" cx="653.98" cy="-1298.8" rx="68.85" ry="24.32"/>
<text xml:space="preserve" text-anchor="middle" x="653.98" y="-1302.1" font-family="Verdana" font-size="11.00">11</text>
<text xml:space="preserve" text-anchor="middle" x="653.98" y="-1288.9" font-family="Verdana" font-size="11.00">Comment Skip</text>
</g>
<!-- s9&#45;&gt;s11 -->
<g id="edge29" class="edge">
<title>s9-&gt;s11</title>
<path fill="none" stroke="#5c6bc0" d="M351.21,-355.07C364.06,-387.62 385.85,-442.8 385.85,-442.8 385.85,-442.8 428.85,-952.8 428.85,-952.8 428.85,-952.8 542.12,-1014 542.12,-1014 542.12,-1014 609.57,-1187.27 639.24,-1263.51"/>
<polygon fill="#5c6bc0" stroke="#5c6bc0" points="635.9,-1264.56 642.78,-1272.61 642.42,-1262.03 635.9,-1264.56"/>
<text xml:space="preserve" text-anchor="middle" x="485.49" y="-1016.7" font-family="Verdana" font-size="9.00">/ (Comment Start)</text>
</g>
<!-- s9&#45;&gt;TOP -->
<g id="edge28" class="edge">
<title>s9:s-&gt;TOP:n</title>
<path fill="none" stroke="#e65100" d="M341.02,-305.75C341.02,-305.75 368.02,-306.75 368.02,-306.75 368.02,-306.75 428.85,-631.8 428.85,-631.8 428.85,-631.8 722.83,-789.8 722.83,-789.8 722.83,-789.8 778.13,-832.6 778.13,-832.6 778.13,-832.6 825.48,-833.19 847.67,-833.46"/>
<polygon fill="#e65100" stroke="#e65100" points="847.35,-836.96 857.39,-833.58 847.44,-829.96 847.35,-836.96"/>
<text xml:space="preserve" text-anchor="middle" x="485.49" y="-695.22" font-family="Verdana" font-size="9.00">other → /</text>
</g>
<!-- s11&#45;&gt;s0 -->
<g id="edge31" class="edge">
<title>s11-&gt;s0:n</title>
<path fill="none" stroke="#5c6bc0" stroke-width="1.5" stroke-dasharray="5,2" d="M595.26,-1285.53C494.28,-1262.33 296.19,-1216.8 296.19,-1216.8 296.19,-1216.8 202.34,-1120.8 202.34,-1120.8 202.34,-1120.8 151.31,-1062.09 131.38,-1039.16"/>
<polygon fill="#5c6bc0" stroke="#5c6bc0" stroke-width="1.5" points="134.22,-1037.1 125.02,-1031.85 128.94,-1041.69 134.22,-1037.1"/>
<text xml:space="preserve" text-anchor="middle" x="341.02" y="-1239.55" font-family="Verdana" font-size="9.00">\n → Exit Comment</text>
</g>
<!-- s11&#45;&gt;s11 -->
<g id="edge30" class="edge">
<title>s11-&gt;s11</title>
<path fill="none" stroke="#5c6bc0" stroke-dasharray="1,5" d="M630.78,-1322.4C614.33,-1349.61 622.06,-1381.12 653.98,-1381.12 681.91,-1381.12 691.32,-1356.99 682.21,-1332.73"/>
<polygon fill="#5c6bc0" stroke="#5c6bc0" points="685.36,-1331.21 677.83,-1323.76 679.07,-1334.28 685.36,-1331.21"/>
<text xml:space="preserve" text-anchor="middle" x="653.98" y="-1383.82" font-family="Verdana" font-size="9.00">any except '\n'</text>
</g>
<!-- s10&#45;&gt;s10 -->
<g id="edge21" class="edge">
<title>s10-&gt;s10</title>
<path fill="none" stroke="#ff0000" d="M465.82,-132.98C451.42,-160.28 457.98,-192.12 485.49,-192.12 509.56,-192.12 517.59,-167.74 509.57,-143.36"/>
<polygon fill="#ff0000" stroke="#ff0000" points="512.88,-142.2 505.74,-134.37 506.44,-144.94 512.88,-142.2"/>
<text xml:space="preserve" text-anchor="middle" x="485.49" y="-194.82" font-family="Verdana" font-size="9.00">[A-Z a-z 0-9 _]</text>
</g>
<!-- TERR -->
<g id="node17" class="node">
<title>TERR</title>
<path fill="#ff8a80" stroke="#1f497d" stroke-width="2" d="M878.98,-21.6C878.98,-21.6 838.83,-21.6 838.83,-21.6 835.23,-21.6 831.63,-18 831.63,-14.4 831.63,-14.4 831.63,-7.2 831.63,-7.2 831.63,-3.6 835.23,0 838.83,0 838.83,0 878.98,0 878.98,0 882.58,0 886.18,-3.6 886.18,-7.2 886.18,-7.2 886.18,-14.4 886.18,-14.4 886.18,-18 882.58,-21.6 878.98,-21.6"/>
<text xml:space="preserve" text-anchor="middle" x="858.9" y="-7.5" font-family="Verdana" font-size="11.00" fill="#1f497d">ERROR</text>
</g>
<!-- s10&#45;&gt;TERR -->
<g id="edge22" class="edge">
<title>s10-&gt;TERR:n</title>
<path fill="none" stroke="#ff0000" d="M512.14,-87.74C541.37,-62.62 585.12,-25 585.12,-25 585.12,-25 795.67,-23.15 847.49,-22.7"/>
<polygon fill="#ff0000" stroke="#ff0000" points="847.42,-26.2 857.39,-22.61 847.36,-19.2 847.42,-26.2"/>
<text xml:space="preserve" text-anchor="middle" x="653.98" y="-27.7" font-family="Verdana" font-size="9.00">other</text>
</g>
<!-- TLIT&#45;&gt;s0 -->
<g id="edge43" class="edge">
<title>TLIT-&gt;s0:sw</title>
<path fill="none" stroke="#757575" stroke-dasharray="5,2" d="M829.46,-1857.11C789.83,-1832.47 722.83,-1790.8 722.83,-1790.8 722.83,-1790.8 542.12,-1701.8 542.12,-1701.8 542.12,-1701.8 428.85,-1701.8 428.85,-1701.8 428.85,-1701.8 385.85,-1709.8 385.85,-1709.8 385.85,-1709.8 253.19,-1733.8 253.19,-1733.8 253.19,-1733.8 202.34,-1733.8 202.34,-1733.8 202.34,-1733.8 101.83,-977.1 101.83,-977.1"/>
<polygon fill="#757575" stroke="#757575" points="827.5,-1860.01 837.84,-1862.32 831.19,-1854.07 827.5,-1860.01"/>
<text xml:space="preserve" text-anchor="middle" x="341.02" y="-1728.68" font-family="Verdana" font-size="9.00">Restart</text>
</g>
<!-- TLIT&#45;&gt;TOP -->
<!-- TOP&#45;&gt;s0 -->
<g id="edge44" class="edge">
<title>TOP-&gt;s0:sw</title>
<path fill="none" stroke="#757575" stroke-dasharray="5,2" d="M847.41,-800.35C815.66,-735.48 722.83,-545.8 722.83,-545.8 722.83,-545.8 385.85,-268 385.85,-268 385.85,-268 296.19,-268 296.19,-268 296.19,-268 202.34,-523.8 202.34,-523.8 202.34,-523.8 101.83,-977.1 101.83,-977.1"/>
<polygon fill="#757575" stroke="#757575" points="844.07,-801.49 851.61,-808.93 850.36,-798.41 844.07,-801.49"/>
<text xml:space="preserve" text-anchor="middle" x="341.02" y="-270.7" font-family="Verdana" font-size="9.00">Restart</text>
</g>
<!-- TOP&#45;&gt;TSYM -->
<!-- TSYM&#45;&gt;s0 -->
<g id="edge45" class="edge">
<title>TSYM-&gt;s0:sw</title>
<path fill="none" stroke="#757575" stroke-dasharray="5,2" d="M850.39,-210.3C802.53,-353.68 542.12,-1133.8 542.12,-1133.8 542.12,-1133.8 385.85,-1261.8 385.85,-1261.8 385.85,-1261.8 296.19,-1261.8 296.19,-1261.8 296.19,-1261.8 101.83,-977.1 101.83,-977.1"/>
<polygon fill="#757575" stroke="#757575" points="853.7,-211.45 853.55,-200.86 847.06,-209.23 853.7,-211.45"/>
<text xml:space="preserve" text-anchor="middle" x="341.02" y="-1264.5" font-family="Verdana" font-size="9.00">Restart</text>
</g>
<!-- TSYM&#45;&gt;TERR -->
<!-- TERR&#45;&gt;s0 -->
<g id="edge46" class="edge">
<title>TERR-&gt;s0:sw</title>
<path fill="none" stroke="#757575" stroke-dasharray="5,2" d="M843.83,-31.74C818.04,-70.12 765.83,-147.8 765.83,-147.8 765.83,-147.8 722.83,-1380.8 722.83,-1380.8 722.83,-1380.8 385.85,-1480.8 385.85,-1480.8 385.85,-1480.8 296.19,-1480.8 296.19,-1480.8 296.19,-1480.8 101.83,-977.1 101.83,-977.1"/>
<polygon fill="#757575" stroke="#757575" points="846.54,-33.99 849.21,-23.74 840.73,-30.08 846.54,-33.99"/>
<text xml:space="preserve" text-anchor="middle" x="341.02" y="-1483.5" font-family="Verdana" font-size="9.00">Restart</text>
</g>
</g>
</svg>